<?xml version="1.0" encoding="iso-8859-1"?>
<!-- Generator: Adobe Illustrator 19.0.0, SVG Export Plug-In . SVG Version: 6.00 Build 0)  -->
<svg version="1.1" id="Capa_1" xmlns="http://www.w3.org/2000/svg" xmlns:xlink="http://www.w3.org/1999/xlink" x="0px" y="0px"
	 viewBox="0 0 512.001 512.001" style="enable-background:new 0 0 512.001 512.001;" xml:space="preserve">
<path style="fill:#D99E82;" d="M256.864,294.624c-136.618,0-247.358-3.28-247.358,93.697c0,96.934,110.741,118.992,247.358,118.992
	s247.358-22.058,247.358-118.992C504.221,291.344,393.482,294.624,256.864,294.624"/>
<path style="fill:#662113;" d="M496.981,301.993c0,0-119.822-14.345-240.112-14.958c-120.29,0.612-240.112,14.958-240.112,14.958
	c-11.853,94.382,86.554,133.265,240.112,133.265S508.819,396.376,496.981,301.993"/>
<path style="fill:#FFCC4D;" d="M488.46,264.249l-464.406,9.418c-16.037,0-29.464,32.496-12.45,40.995
	c126.952,39.493,229.003,79.439,229.003,79.439c14.04,7.756,18.763,7.785,32.817,0.044c0,0,140.919-56.391,231.438-80.081
	C517.691,310.697,504.497,264.249,488.46,264.249"/>
<path style="fill:#77B255;" d="M500.698,265.486c-27.7-25.528-26.096-11.94-47.323-17.932
	c-8.062-2.275-65.735-76.859-197.222-76.859c-0.058,0-0.102,0.015-0.146,0.015c-0.058,0-0.102-0.015-0.146-0.015
	c-131.5,0-189.174,74.585-197.236,76.859c-21.227,5.992-19.623-7.596-47.323,17.932c-12.712,11.721-16.153,17.815-2.741,20.848
	c20.207,4.577,18.369,16.795,32.846,21.051c17.523,5.147,24.726-4.257,52.994-0.408c24.099,3.265,25.659,34.537,49.976,34.537
	s24.318-11.663,48.635-11.663c24.303,0,38.678,31.286,62.995,31.286c24.303,0,38.678-31.286,62.98-31.286
	c24.318,0,24.318,11.663,48.635,11.663c24.318,0,25.892-31.271,49.99-34.537c28.254-3.848,35.47,5.555,52.979,0.408
	c14.477-4.257,12.64-16.474,32.846-21.051C516.851,283.301,513.411,277.207,500.698,265.486"/>
<path style="fill:#DD2E44;" d="M491.246,237.901c0,43.503-104.938,64.045-234.382,64.045S22.481,281.405,22.481,237.901
	c0-78.769,14.084-78.769,234.382-78.769S491.246,159.132,491.246,237.901"/>
<path style="fill:#D99E82;" d="M256.864,4.688C120.247,4.688,9.506,68.704,9.506,165.668c0,89.295,110.741,92.94,247.358,92.94
	s247.358-3.645,247.358-92.94C504.221,68.704,393.482,4.688,256.864,4.688"/>
<g>
	<path style="fill:#FFE8B6;" d="M151.666,50.919c-7.26-4.636-16.896-2.507-21.548,4.753c-4.621,7.245-2.507,16.896,4.753,21.519
		c7.26,4.65,25.659,8.12,30.309,0.86C169.817,70.79,158.927,55.555,151.666,50.919"/>
	<path style="fill:#FFE8B6;" d="M293.568,35.834c-8.193,2.653-22.582,14.667-19.915,22.86c2.653,8.193,21.343,9.461,29.537,6.794
		c8.208-2.653,12.669-11.459,10.015-19.652C310.537,37.657,301.732,33.166,293.568,35.834"/>
	<path style="fill:#FFE8B6;" d="M452.606,138.393c-6.589-5.54-23.107,3.28-28.662,9.87c-5.54,6.604-4.68,16.43,1.91,21.985
		c6.589,5.54,16.43,4.68,21.97-1.924C453.378,161.734,459.21,143.933,452.606,138.393"/>
	<path style="fill:#FFE8B6;" d="M399.505,65.497c-7.26-4.636-16.896-2.507-21.548,4.753c-4.636,7.245-2.507,16.896,4.767,21.519
		c7.26,4.65,25.644,8.12,30.295,0.86C417.656,85.368,406.766,70.134,399.505,65.497"/>
	<path style="fill:#FFE8B6;" d="M180.824,167.549c-7.26-4.636-16.896-2.507-21.548,4.753c-4.636,7.245-2.507,16.896,4.767,21.519
		c7.26,4.65,25.644,8.12,30.295,0.846C198.974,187.42,188.084,172.185,180.824,167.549"/>
	<path style="fill:#FFE8B6;" d="M225.23,97.461c-4.899,7.086-9.039,25.352-1.939,30.251c7.086,4.899,22.699-5.452,27.598-12.538
		c4.899-7.086,3.119-16.795-3.98-21.693C239.823,88.582,230.113,90.375,225.23,97.461"/>
	<path style="fill:#FFE8B6;" d="M341.19,167.549c-7.26-4.636-16.896-2.507-21.548,4.753c-4.636,7.245-2.507,16.896,4.767,21.519
		c7.26,4.65,25.644,8.12,30.295,0.846C359.341,187.42,348.451,172.185,341.19,167.549"/>
	<path style="fill:#FFE8B6;" d="M66.584,110.892c-5.759,6.415-12.144,24.026-5.715,29.77c6.4,5.744,23.195-2.551,28.939-8.966
		c5.759-6.43,5.204-16.27-1.21-22.029C82.184,103.923,72.329,104.477,66.584,110.892"/>
</g>
<g>
</g>
<g>
</g>
<g>
</g>
<g>
</g>
<g>
</g>
<g>
</g>
<g>
</g>
<g>
</g>
<g>
</g>
<g>
</g>
<g>
</g>
<g>
</g>
<g>
</g>
<g>
</g>
<g>
</g>
</svg>
